<svg width="24" height="24" viewBox="0 0 24 24" fill="none" xmlns="http://www.w3.org/2000/svg">
    <path fill-rule="evenodd" clip-rule="evenodd" d="M20.7071 5.70711L17.4142 9L19.7071 11.2929C19.8946 11.4804 20 11.7348 20 12C20 12.2652 19.8946 12.5196 19.7071 12.7071L17.4142 15L20.7071 18.2929C21.0976 18.6834 21.0976 19.3166 20.7071 19.7071C20.3166 20.0977 19.6834 20.0977 19.2929 19.7071L16 16.4142L13.7071 18.7071C13.3166 19.0976 12.6834 19.0976 12.2929 18.7071L6.58579 13H3C2.44772 13 2 12.5523 2 12C2 11.4477 2.44772 11 3 11H6.58579L12.2929 5.29289C12.6834 4.90237 13.3166 4.90237 13.7071 5.29289L16 7.58579L19.2929 4.29289C19.6834 3.90237 20.3166 3.90237 20.7071 4.29289C21.0976 4.68342 21.0976 5.31658 20.7071 5.70711ZM17.5858 12L13 16.5858L8.41421 12L13 7.41421L17.5858 12Z" fill="#8D95A9"/>
</svg>
