<svg width="24" height="24" viewBox="0 0 24 24" fill="none" xmlns="http://www.w3.org/2000/svg">
<path d="M11.9806 15.9998L12 16C11.9494 16 11.8996 15.9962 11.851 15.989C11.8341 15.9864 11.8166 15.9833 11.7993 15.9798C11.7773 15.9754 11.7556 15.9702 11.7342 15.9643C11.7185 15.9599 11.7031 15.9553 11.6879 15.9503C11.6682 15.9439 11.6484 15.9367 11.6289 15.9289C11.6112 15.9218 11.5939 15.9143 11.5768 15.9063C11.5561 15.8966 11.5357 15.8862 11.5157 15.8751C11.5036 15.8685 11.4914 15.8614 11.4793 15.854C11.4537 15.8383 11.4289 15.8215 11.4048 15.8037C11.3988 15.7993 11.3929 15.7948 11.3871 15.7903L11.3746 15.7803L11.2929 15.7071L8.29289 12.7071C7.90237 12.3166 7.90237 11.6834 8.29289 11.2929C8.65338 10.9324 9.22061 10.9047 9.6129 11.2097L9.70711 11.2929L11 12.586V5C11 4.44772 11.4477 4 12 4C12.5523 4 13 4.44772 13 5V12.586L14.2929 11.2929C14.6534 10.9324 15.2206 10.9047 15.6129 11.2097L15.7071 11.2929C16.0676 11.6534 16.0953 12.2206 15.7903 12.6129L15.7071 12.7071L12.7071 15.7071L12.6167 15.7872L12.6254 15.7803L12.7071 15.7071C12.6717 15.7425 12.6343 15.7747 12.5953 15.8037C12.5711 15.8215 12.5463 15.8383 12.5207 15.8539C12.5086 15.8614 12.4964 15.8685 12.4841 15.8753C12.4643 15.8862 12.4439 15.8966 12.4231 15.9063C12.4061 15.9143 12.3888 15.9218 12.3713 15.9288C12.3516 15.9367 12.3318 15.9439 12.3117 15.9505C12.2969 15.9553 12.2815 15.9599 12.266 15.9642C12.2444 15.9702 12.2227 15.9754 12.2008 15.9798C12.1834 15.9833 12.1659 15.9864 12.1485 15.989C12.1295 15.9919 12.1098 15.9942 12.09 15.996C12.0657 15.9981 12.042 15.9994 12.0184 15.9998L12 16L11.9108 15.996C11.934 15.9981 11.9573 15.9994 11.9806 15.9998Z" fill="white"/>
<path d="M5 18C4.44772 18 4 18.4477 4 19C4 19.5523 4.44772 20 5 20H19C19.5523 20 20 19.5523 20 19C20 18.4477 19.5523 18 19 18H5Z" fill="white"/>
</svg>
