<svg width="24" height="24" viewBox="0 0 24 24" fill="none" xmlns="http://www.w3.org/2000/svg">
    <path d="M8.70711 3.29289C8.31658 2.90237 7.68342 2.90237 7.29289 3.29289C6.90237 3.68342 6.90237 4.31658 7.29289 4.70711L11.1161 8.53033C11.6043 9.01849 12.3957 9.01849 12.8839 8.53033L16.7071 4.70711C17.0976 4.31658 17.0976 3.68342 16.7071 3.29289C16.3166 2.90237 15.6834 2.90237 15.2929 3.29289L12 6.58579L8.70711 3.29289Z" fill="#8D95A9"/>
    <path d="M8.70711 20.7071C8.31658 21.0976 7.68342 21.0976 7.29289 20.7071C6.90237 20.3166 6.90237 19.6834 7.29289 19.2929L11.1161 15.4697C11.6043 14.9815 12.3957 14.9815 12.8839 15.4697L16.7071 19.2929C17.0976 19.6834 17.0976 20.3166 16.7071 20.7071C16.3166 21.0976 15.6834 21.0976 15.2929 20.7071L12 17.4142L8.70711 20.7071Z" fill="#8D95A9"/>
</svg>
