<svg width="24" height="24" viewBox="0 0 24 24" fill="none" xmlns="http://www.w3.org/2000/svg">
<path d="M12.5858 4.58579C12.2107 4.21071 11.702 4 11.1716 4H5C4.44772 4 4 4.44772 4 5V19C4 19.5523 4.44772 20 5 20H15C15.5523 20 16 19.5523 16 19V18H9C7.89543 18 7 17.1046 7 16V13C7 11.8954 7.89543 11 9 11H16V8.82843C16 8.29799 15.7893 7.78929 15.4142 7.41421L12.5858 4.58579Z" fill="#8D95A9"/>
<path d="M14.9951 15.4146C14.5451 15.4146 14.2583 15.0519 14.2583 14.4785C14.2583 13.9031 14.547 13.5385 14.9951 13.5385C15.4432 13.5385 15.73 13.9031 15.73 14.4785C15.73 15.0519 15.4432 15.4146 14.9951 15.4146Z" fill="#8D95A9"/>
<path fill-rule="evenodd" clip-rule="evenodd" d="M8 13C8 12.4477 8.44772 12 9 12H19C19.5523 12 20 12.4477 20 13V16C20 16.5523 19.5523 17 19 17H9C8.44771 17 8 16.5523 8 16V13ZM13.417 15.0196C13.417 15.5551 12.9973 15.8931 12.3137 15.8931C11.7478 15.8931 11.3852 15.6672 11.275 15.3671C11.256 15.3178 11.2446 15.2646 11.2446 15.2133C11.2446 15.0614 11.3491 14.9608 11.4972 14.9608C11.6149 14.9608 11.6928 15.0064 11.7611 15.1279C11.8504 15.3368 12.065 15.4317 12.327 15.4317C12.6346 15.4317 12.8435 15.2836 12.8435 15.0823C12.8435 14.9019 12.7144 14.7994 12.3707 14.7291L12.0801 14.6722C11.5333 14.5639 11.2655 14.3019 11.2655 13.8936C11.2655 13.3923 11.7023 13.06 12.3118 13.06C12.8131 13.06 13.191 13.2708 13.3125 13.6278C13.3258 13.6657 13.3334 13.7056 13.3334 13.755C13.3334 13.8917 13.2347 13.9848 13.0885 13.9848C12.9593 13.9848 12.8796 13.9335 12.815 13.8158C12.7239 13.6088 12.5473 13.5233 12.3118 13.5233C12.0289 13.5233 11.8409 13.6562 11.8409 13.8575C11.8409 14.0265 11.9719 14.131 12.2966 14.1955L12.5853 14.2544C13.1663 14.3702 13.417 14.6038 13.417 15.0196ZM10.8419 14.9798C10.8419 15.5627 10.4925 15.8931 9.90577 15.8931C9.49371 15.8931 9.1766 15.7051 9.04747 15.3899C9.01519 15.3102 9 15.2418 9 15.1583C9 14.9931 9.10444 14.8886 9.26584 14.8886C9.41016 14.8886 9.49371 14.957 9.53928 15.1127C9.59055 15.2969 9.71778 15.3994 9.90007 15.3994C10.1393 15.3994 10.2685 15.2513 10.2685 14.976V13.3695C10.2685 13.1796 10.3748 13.0695 10.5552 13.0695C10.7356 13.0695 10.8419 13.1796 10.8419 13.3695V14.9798ZM14.9951 15.8931C15.8059 15.8931 16.3167 15.3501 16.3167 14.4785C16.3167 13.605 15.8059 13.06 14.9951 13.06C14.1824 13.06 13.6735 13.605 13.6735 14.4785C13.6735 15.3501 14.1824 15.8931 14.9951 15.8931ZM17.2264 15.5969C17.2264 15.7792 17.1239 15.8836 16.953 15.8836C16.7802 15.8836 16.6777 15.7792 16.6777 15.5969V13.3562C16.6777 13.1739 16.784 13.0695 16.9663 13.0695C17.084 13.0695 17.1638 13.117 17.2511 13.2366L18.436 14.8924H18.4512V13.3581C18.4512 13.1739 18.5538 13.0695 18.7266 13.0695C18.8994 13.0695 19 13.1739 19 13.3581V15.6045C19 15.783 18.8994 15.8836 18.719 15.8836C18.5955 15.8836 18.5196 15.84 18.4322 15.7184L17.2435 14.0531H17.2264V15.5969Z" fill="#8D95A9"/>
</svg>
