<svg width="280" height="60" viewBox="0 0 280 60" fill="none" xmlns="http://www.w3.org/2000/svg">
    <path d="M25.976 33.376L28.208 27.088H28.256L30.416 33.376H25.976ZM26.336 22.864L19.856 40H23.648L24.992 36.184H31.4L32.696 40H36.608L30.2 22.864H26.336ZM41.8537 30.928V25.792H44.7817C45.2137 25.792 45.6297 25.824 46.0297 25.888C46.4297 25.952 46.7817 26.08 47.0857 26.272C47.3897 26.448 47.6297 26.704 47.8057 27.04C47.9977 27.376 48.0937 27.816 48.0937 28.36C48.0937 28.904 47.9977 29.344 47.8057 29.68C47.6297 30.016 47.3897 30.28 47.0857 30.472C46.7817 30.648 46.4297 30.768 46.0297 30.832C45.6297 30.896 45.2137 30.928 44.7817 30.928H41.8537ZM38.0857 22.864V40H41.8537V33.856H45.8137C46.8857 33.856 47.7977 33.704 48.5497 33.4C49.3017 33.08 49.9097 32.664 50.3737 32.152C50.8537 31.64 51.1977 31.056 51.4057 30.4C51.6297 29.728 51.7417 29.048 51.7417 28.36C51.7417 27.656 51.6297 26.976 51.4057 26.32C51.1977 25.664 50.8537 25.08 50.3737 24.568C49.9097 24.056 49.3017 23.648 48.5497 23.344C47.7977 23.024 46.8857 22.864 45.8137 22.864H38.0857ZM57.8615 30.928V25.792H60.7895C61.2215 25.792 61.6375 25.824 62.0375 25.888C62.4375 25.952 62.7895 26.08 63.0935 26.272C63.3975 26.448 63.6375 26.704 63.8135 27.04C64.0055 27.376 64.1015 27.816 64.1015 28.36C64.1015 28.904 64.0055 29.344 63.8135 29.68C63.6375 30.016 63.3975 30.28 63.0935 30.472C62.7895 30.648 62.4375 30.768 62.0375 30.832C61.6375 30.896 61.2215 30.928 60.7895 30.928H57.8615ZM54.0935 22.864V40H57.8615V33.856H61.8215C62.8935 33.856 63.8055 33.704 64.5575 33.4C65.3095 33.08 65.9175 32.664 66.3815 32.152C66.8615 31.64 67.2055 31.056 67.4135 30.4C67.6375 29.728 67.7495 29.048 67.7495 28.36C67.7495 27.656 67.6375 26.976 67.4135 26.32C67.2055 25.664 66.8615 25.08 66.3815 24.568C65.9175 24.056 65.3095 23.648 64.5575 23.344C63.8055 23.024 62.8935 22.864 61.8215 22.864H54.0935Z" fill="#4675C0"/>
    <path d="M72.5253 22.864L78.2133 37.888L84.1173 22.864H86.5173V40H84.8853V25.192H84.8373L78.9813 40H77.4453L71.8053 25.192H71.7573V40H70.1253V22.864H72.5253ZM89.8843 22.864V40H101.836V38.608H91.5163V31.84H101.068V30.448H91.5163V24.256H101.716V22.864H89.8843ZM104.879 34.36H103.247C103.199 35.416 103.335 36.32 103.655 37.072C103.991 37.824 104.463 38.44 105.071 38.92C105.679 39.4 106.415 39.76 107.279 40C108.143 40.224 109.079 40.336 110.087 40.336C111.095 40.336 111.959 40.24 112.679 40.048C113.399 39.872 113.999 39.64 114.479 39.352C114.975 39.048 115.359 38.712 115.631 38.344C115.919 37.976 116.135 37.616 116.279 37.264C116.439 36.896 116.535 36.552 116.567 36.232C116.615 35.912 116.639 35.656 116.639 35.464C116.639 34.76 116.519 34.16 116.279 33.664C116.055 33.168 115.735 32.752 115.319 32.416C114.919 32.064 114.447 31.776 113.903 31.552C113.375 31.312 112.807 31.112 112.199 30.952L108.023 29.92C107.671 29.84 107.335 29.736 107.015 29.608C106.711 29.48 106.439 29.312 106.199 29.104C105.959 28.896 105.767 28.648 105.623 28.36C105.495 28.056 105.431 27.704 105.431 27.304C105.431 26.664 105.551 26.128 105.791 25.696C106.031 25.264 106.343 24.92 106.727 24.664C107.127 24.392 107.583 24.2 108.095 24.088C108.623 23.96 109.167 23.896 109.727 23.896C110.335 23.896 110.911 23.984 111.455 24.16C112.015 24.32 112.503 24.568 112.919 24.904C113.351 25.224 113.695 25.632 113.951 26.128C114.223 26.608 114.375 27.176 114.407 27.832H116.039C116.039 26.952 115.863 26.184 115.511 25.528C115.175 24.856 114.719 24.296 114.143 23.848C113.567 23.4 112.895 23.064 112.127 22.84C111.359 22.616 110.551 22.504 109.703 22.504C108.503 22.504 107.519 22.68 106.751 23.032C105.983 23.368 105.375 23.784 104.927 24.28C104.495 24.776 104.199 25.304 104.039 25.864C103.879 26.424 103.799 26.912 103.799 27.328C103.799 28 103.903 28.568 104.111 29.032C104.335 29.496 104.623 29.888 104.975 30.208C105.327 30.528 105.735 30.784 106.199 30.976C106.679 31.168 107.167 31.328 107.663 31.456L111.479 32.392C111.879 32.488 112.287 32.616 112.703 32.776C113.119 32.92 113.495 33.112 113.831 33.352C114.183 33.592 114.463 33.888 114.671 34.24C114.895 34.592 115.007 35.008 115.007 35.488C115.007 36.112 114.855 36.648 114.551 37.096C114.247 37.528 113.863 37.888 113.399 38.176C112.951 38.448 112.463 38.648 111.935 38.776C111.407 38.904 110.919 38.968 110.471 38.968C109.687 38.968 108.951 38.896 108.263 38.752C107.575 38.592 106.975 38.336 106.463 37.984C105.967 37.632 105.575 37.16 105.287 36.568C104.999 35.976 104.863 35.24 104.879 34.36ZM119.996 34.36H118.364C118.316 35.416 118.452 36.32 118.772 37.072C119.108 37.824 119.58 38.44 120.188 38.92C120.796 39.4 121.532 39.76 122.396 40C123.26 40.224 124.196 40.336 125.204 40.336C126.212 40.336 127.076 40.24 127.796 40.048C128.516 39.872 129.116 39.64 129.596 39.352C130.092 39.048 130.476 38.712 130.748 38.344C131.036 37.976 131.252 37.616 131.396 37.264C131.556 36.896 131.652 36.552 131.684 36.232C131.732 35.912 131.756 35.656 131.756 35.464C131.756 34.76 131.636 34.16 131.396 33.664C131.172 33.168 130.852 32.752 130.436 32.416C130.036 32.064 129.564 31.776 129.02 31.552C128.492 31.312 127.924 31.112 127.316 30.952L123.14 29.92C122.788 29.84 122.452 29.736 122.132 29.608C121.828 29.48 121.556 29.312 121.316 29.104C121.076 28.896 120.884 28.648 120.74 28.36C120.612 28.056 120.548 27.704 120.548 27.304C120.548 26.664 120.668 26.128 120.908 25.696C121.148 25.264 121.46 24.92 121.844 24.664C122.244 24.392 122.7 24.2 123.212 24.088C123.74 23.96 124.284 23.896 124.844 23.896C125.452 23.896 126.028 23.984 126.572 24.16C127.132 24.32 127.62 24.568 128.036 24.904C128.468 25.224 128.812 25.632 129.068 26.128C129.34 26.608 129.492 27.176 129.524 27.832H131.156C131.156 26.952 130.98 26.184 130.628 25.528C130.292 24.856 129.836 24.296 129.26 23.848C128.684 23.4 128.012 23.064 127.244 22.84C126.476 22.616 125.668 22.504 124.82 22.504C123.62 22.504 122.636 22.68 121.868 23.032C121.1 23.368 120.492 23.784 120.044 24.28C119.612 24.776 119.316 25.304 119.156 25.864C118.996 26.424 118.916 26.912 118.916 27.328C118.916 28 119.02 28.568 119.228 29.032C119.452 29.496 119.74 29.888 120.092 30.208C120.444 30.528 120.852 30.784 121.316 30.976C121.796 31.168 122.284 31.328 122.78 31.456L126.596 32.392C126.996 32.488 127.404 32.616 127.82 32.776C128.236 32.92 128.612 33.112 128.948 33.352C129.3 33.592 129.58 33.888 129.788 34.24C130.012 34.592 130.124 35.008 130.124 35.488C130.124 36.112 129.972 36.648 129.668 37.096C129.364 37.528 128.98 37.888 128.516 38.176C128.068 38.448 127.58 38.648 127.052 38.776C126.524 38.904 126.036 38.968 125.588 38.968C124.804 38.968 124.068 38.896 123.38 38.752C122.692 38.592 122.092 38.336 121.58 37.984C121.084 37.632 120.692 37.16 120.404 36.568C120.116 35.976 119.98 35.24 119.996 34.36ZM136.769 33.28L140.201 24.496L143.513 33.28H136.769ZM139.361 22.864L132.473 40H134.201L136.265 34.672H144.065L146.153 40H147.905L141.185 22.864H139.361ZM164.102 40V31.288H156.83V32.68H162.662C162.678 33.592 162.558 34.432 162.302 35.2C162.046 35.968 161.662 36.632 161.15 37.192C160.638 37.752 160.006 38.192 159.254 38.512C158.518 38.816 157.678 38.968 156.734 38.968C155.598 38.968 154.622 38.752 153.806 38.32C152.99 37.888 152.318 37.32 151.79 36.616C151.278 35.896 150.894 35.088 150.638 34.192C150.398 33.28 150.278 32.36 150.278 31.432C150.278 30.488 150.398 29.568 150.638 28.672C150.894 27.776 151.278 26.976 151.79 26.272C152.318 25.552 152.99 24.976 153.806 24.544C154.622 24.112 155.598 23.896 156.734 23.896C157.55 23.896 158.286 24.032 158.942 24.304C159.598 24.56 160.158 24.896 160.622 25.312C161.102 25.728 161.478 26.192 161.75 26.704C162.038 27.2 162.206 27.696 162.254 28.192H163.886C163.726 27.248 163.43 26.424 162.998 25.72C162.566 25.016 162.038 24.424 161.414 23.944C160.79 23.464 160.078 23.104 159.278 22.864C158.478 22.624 157.63 22.504 156.734 22.504C155.39 22.504 154.206 22.752 153.182 23.248C152.174 23.728 151.334 24.384 150.662 25.216C149.99 26.032 149.486 26.976 149.15 28.048C148.814 29.12 148.646 30.248 148.646 31.432C148.646 32.616 148.814 33.744 149.15 34.816C149.486 35.888 149.99 36.832 150.662 37.648C151.334 38.464 152.174 39.12 153.182 39.616C154.206 40.096 155.39 40.336 156.734 40.336C157.358 40.336 157.958 40.272 158.534 40.144C159.126 40.016 159.678 39.816 160.19 39.544C160.702 39.256 161.166 38.896 161.582 38.464C162.014 38.016 162.374 37.488 162.662 36.88H162.71L162.926 40H164.102ZM167.251 22.864V40H179.203V38.608H168.883V31.84H178.435V30.448H168.883V24.256H179.083V22.864H167.251ZM182.246 34.36H180.614C180.566 35.416 180.702 36.32 181.022 37.072C181.358 37.824 181.83 38.44 182.438 38.92C183.046 39.4 183.782 39.76 184.646 40C185.51 40.224 186.446 40.336 187.454 40.336C188.462 40.336 189.326 40.24 190.046 40.048C190.766 39.872 191.366 39.64 191.846 39.352C192.342 39.048 192.726 38.712 192.998 38.344C193.286 37.976 193.502 37.616 193.646 37.264C193.806 36.896 193.902 36.552 193.934 36.232C193.982 35.912 194.006 35.656 194.006 35.464C194.006 34.76 193.886 34.16 193.646 33.664C193.422 33.168 193.102 32.752 192.686 32.416C192.286 32.064 191.814 31.776 191.27 31.552C190.742 31.312 190.174 31.112 189.566 30.952L185.39 29.92C185.038 29.84 184.702 29.736 184.382 29.608C184.078 29.48 183.806 29.312 183.566 29.104C183.326 28.896 183.134 28.648 182.99 28.36C182.862 28.056 182.798 27.704 182.798 27.304C182.798 26.664 182.918 26.128 183.158 25.696C183.398 25.264 183.71 24.92 184.094 24.664C184.494 24.392 184.95 24.2 185.462 24.088C185.99 23.96 186.534 23.896 187.094 23.896C187.702 23.896 188.278 23.984 188.822 24.16C189.382 24.32 189.87 24.568 190.286 24.904C190.718 25.224 191.062 25.632 191.318 26.128C191.59 26.608 191.742 27.176 191.774 27.832H193.406C193.406 26.952 193.23 26.184 192.878 25.528C192.542 24.856 192.086 24.296 191.51 23.848C190.934 23.4 190.262 23.064 189.494 22.84C188.726 22.616 187.918 22.504 187.07 22.504C185.87 22.504 184.886 22.68 184.118 23.032C183.35 23.368 182.742 23.784 182.294 24.28C181.862 24.776 181.566 25.304 181.406 25.864C181.246 26.424 181.166 26.912 181.166 27.328C181.166 28 181.27 28.568 181.478 29.032C181.702 29.496 181.99 29.888 182.342 30.208C182.694 30.528 183.102 30.784 183.566 30.976C184.046 31.168 184.534 31.328 185.03 31.456L188.846 32.392C189.246 32.488 189.654 32.616 190.07 32.776C190.486 32.92 190.862 33.112 191.198 33.352C191.55 33.592 191.83 33.888 192.038 34.24C192.262 34.592 192.374 35.008 192.374 35.488C192.374 36.112 192.222 36.648 191.918 37.096C191.614 37.528 191.23 37.888 190.766 38.176C190.318 38.448 189.83 38.648 189.302 38.776C188.774 38.904 188.286 38.968 187.838 38.968C187.054 38.968 186.318 38.896 185.63 38.752C184.942 38.592 184.342 38.336 183.83 37.984C183.334 37.632 182.942 37.16 182.654 36.568C182.366 35.976 182.23 35.24 182.246 34.36Z" fill="#6C7688"/>
    <rect x="200" y="11" width="36" height="20" rx="10" fill="#4675C0"/>
    <path d="M213.744 18.736V21.652H211.536L213.708 18.736H213.744ZM213.744 23.056V25H215.364V23.056H216.48V21.652H215.364V16.6H213.84L210.192 21.496V23.056H213.744ZM223.688 24.028L223.88 25H225.08V20.368H221.48V21.772H223.376C223.32 22.372 223.12 22.832 222.776 23.152C222.44 23.464 221.96 23.62 221.336 23.62C220.912 23.62 220.552 23.54 220.256 23.38C219.96 23.212 219.72 22.992 219.536 22.72C219.352 22.448 219.216 22.144 219.128 21.808C219.048 21.464 219.008 21.112 219.008 20.752C219.008 20.376 219.048 20.012 219.128 19.66C219.216 19.308 219.352 18.996 219.536 18.724C219.72 18.444 219.96 18.224 220.256 18.064C220.552 17.896 220.912 17.812 221.336 17.812C221.792 17.812 222.18 17.932 222.5 18.172C222.82 18.412 223.036 18.772 223.148 19.252H224.948C224.9 18.764 224.768 18.332 224.552 17.956C224.336 17.58 224.06 17.264 223.724 17.008C223.396 16.752 223.024 16.56 222.608 16.432C222.2 16.296 221.776 16.228 221.336 16.228C220.68 16.228 220.088 16.344 219.56 16.576C219.04 16.808 218.6 17.128 218.24 17.536C217.88 17.944 217.604 18.424 217.412 18.976C217.22 19.52 217.124 20.112 217.124 20.752C217.124 21.376 217.22 21.96 217.412 22.504C217.604 23.04 217.88 23.508 218.24 23.908C218.6 24.308 219.04 24.624 219.56 24.856C220.088 25.08 220.68 25.192 221.336 25.192C221.752 25.192 222.164 25.108 222.572 24.94C222.98 24.764 223.352 24.46 223.688 24.028Z" fill="white"/>
</svg>
