<svg width="24" height="24" viewBox="0 0 24 24" fill="none" xmlns="http://www.w3.org/2000/svg">
<path fill-rule="evenodd" clip-rule="evenodd" d="M12 20C16.4183 20 20 16.4183 20 12C20 7.58172 16.4183 4 12 4C7.58172 4 4 7.58172 4 12C4 16.4183 7.58172 20 12 20ZM9 9C9 8.44772 9.44772 8 10 8C10.5523 8 11 8.44772 11 9V15C11 15.5523 10.5523 16 10 16C9.44772 16 9 15.5523 9 15V9ZM13 9C13 8.44772 13.4477 8 14 8C14.5523 8 15 8.44772 15 9V15C15 15.5523 14.5523 16 14 16C13.4477 16 13 15.5523 13 15V9Z" fill="#8D95A9"/>
</svg>
