<svg width="24" height="24" viewBox="0 0 24 24" fill="none" xmlns="http://www.w3.org/2000/svg">
<path d="M4 6C4 5.44772 4.44772 5 5 5C5.55228 5 6 5.44772 6 6V17H19C19.5523 17 20 17.4477 20 18C20 18.5523 19.5523 19 19 19H5C4.44772 19 4 18.5523 4 18V6Z" fill="white"/>
<path d="M8 15V12.4142C8 12.149 8.10536 11.8946 8.29289 11.7071L11.2929 8.70711C11.6834 8.31658 12.3166 8.31658 12.7071 8.70711L13.2929 9.29289C13.6834 9.68342 14.3166 9.68342 14.7071 9.29289L17.1464 6.85355C17.4614 6.53857 18 6.76165 18 7.20711V15H8Z" fill="white"/>
</svg>
