<svg width="24" height="24" viewBox="0 0 24 24" fill="none" xmlns="http://www.w3.org/2000/svg">
  <path d="M19.6394 10.7673L18.6118 10.3166C18.2772 10.171 18.0122 9.90113 17.8726 9.56396C17.7361 9.22568 17.7361 8.8476 17.8726 8.50932L18.2828 7.4682C18.3442 7.38134 18.3729 7.27555 18.3638 7.16956C18.3548 7.06357 18.3085 6.9642 18.2332 6.88904L17.1064 5.76229C17.0313 5.68701 16.9319 5.64074 16.8259 5.63166C16.7199 5.62259 16.6142 5.6513 16.5273 5.71271L15.4884 6.14088C15.1502 6.27747 14.7721 6.27747 14.4338 6.14088C14.0966 6.00131 13.8268 5.73632 13.6811 5.40173L13.2304 4.37413C13.2122 4.26831 13.1567 4.17248 13.0741 4.1039C12.9915 4.03531 12.8871 3.99849 12.7797 4.00005H11.2023C11.0949 3.99849 10.9905 4.03531 10.9079 4.1039C10.8252 4.17248 10.7698 4.26831 10.7516 4.37413L10.3009 5.40173C10.1552 5.73516 9.88614 5.99927 9.55007 6.13874C9.214 6.27821 8.837 6.28221 8.49805 6.14989L7.47045 5.72623C7.38359 5.66482 7.2778 5.63611 7.17181 5.64518C7.06582 5.65426 6.96646 5.70053 6.8913 5.77581L5.76454 6.90257C5.68926 6.97772 5.64299 7.07709 5.63392 7.18308C5.62484 7.28907 5.65355 7.39486 5.71497 7.48172L6.14088 8.51157C6.27868 8.85117 6.27868 9.23112 6.14088 9.57072C6.00034 9.90619 5.73547 10.1743 5.40173 10.3189L4.37413 10.7696C4.26831 10.7878 4.17248 10.8433 4.1039 10.9259C4.03531 11.0085 3.99849 11.1129 4.00005 11.2203V12.7977C3.99849 12.9051 4.03531 13.0095 4.1039 13.0921C4.17248 13.1748 4.26831 13.2302 4.37413 13.2484L5.40173 13.6991C5.73632 13.8448 6.00131 14.1146 6.14088 14.4518C6.27747 14.7901 6.27747 15.1682 6.14088 15.5065L5.72623 16.5296C5.66482 16.6164 5.63611 16.7222 5.64518 16.8282C5.65426 16.9342 5.70053 17.0335 5.77581 17.1087L6.90257 18.2355C6.97772 18.3107 7.07709 18.357 7.18308 18.3661C7.28907 18.3752 7.39486 18.3464 7.48172 18.285L8.51157 17.8591C8.84985 17.7225 9.22793 17.7225 9.56621 17.8591C9.90338 17.9987 10.1732 18.2637 10.3189 18.5983L10.7696 19.6259C10.7878 19.7317 10.8433 19.8275 10.9259 19.8961C11.0085 19.9647 11.1129 20.0015 11.2203 20H12.7977C12.9051 20.0015 13.0095 19.9647 13.0921 19.8961C13.1748 19.8275 13.2302 19.7317 13.2484 19.6259L13.6991 18.5983C13.8449 18.2624 14.1156 17.9965 14.4541 17.8569C14.7917 17.7209 15.1688 17.7209 15.5065 17.8569L16.5476 18.267C16.6344 18.3284 16.7402 18.3571 16.8462 18.3481C16.9522 18.339 17.0516 18.2927 17.1267 18.2174L18.2535 17.0907C18.3288 17.0155 18.375 16.9162 18.3841 16.8102C18.3932 16.7042 18.3645 16.5984 18.3031 16.5115L17.8591 15.4884C17.7213 15.1488 17.7213 14.7689 17.8591 14.4293C17.9997 14.0938 18.2645 13.8257 18.5983 13.6811L19.6259 13.2304C19.7317 13.2122 19.8275 13.1567 19.8961 13.0741C19.9647 12.9915 20.0015 12.8871 20 12.7797V11.2023C19.9984 11.0995 19.9619 11.0004 19.8963 10.9213C19.8307 10.8422 19.7401 10.7879 19.6394 10.7673ZM12 15.7881C11.2508 15.7881 10.5184 15.566 9.89542 15.1497C9.27246 14.7335 8.78693 14.1419 8.50021 13.4497C8.21349 12.7575 8.13848 11.9958 8.28464 11.261C8.43081 10.5261 8.79159 9.85116 9.32138 9.32138C9.85116 8.79159 10.5261 8.43081 11.261 8.28464C11.9958 8.13848 12.7575 8.21349 13.4497 8.50021C14.1419 8.78693 14.7335 9.27246 15.1497 9.89542C15.566 10.5184 15.7881 11.2508 15.7881 12C15.7881 13.0047 15.389 13.9682 14.6786 14.6786C13.9682 15.389 13.0047 15.7881 12 15.7881Z" fill="#4675C0"/>
</svg>
