<svg width="24" height="24" viewBox="0 0 24 24" fill="none" xmlns="http://www.w3.org/2000/svg">
<path d="M12.5858 4.58579C12.2107 4.21071 11.702 4 11.1716 4H5C4.44772 4 4 4.44772 4 5V19C4 19.5523 4.44772 20 5 20H15C15.5523 20 16 19.5523 16 19V18H11C9.89543 18 9 17.1046 9 16V13C9 11.8954 9.89543 11 11 11H16V8.82843C16 8.29799 15.7893 7.78929 15.4142 7.41421L12.5858 4.58579Z" fill="#8D95A9"/>
<path fill-rule="evenodd" clip-rule="evenodd" d="M10 13C10 12.4477 10.4477 12 11 12H19C19.5523 12 20 12.4477 20 13V16C20 16.5523 19.5523 17 19 17H11C10.4477 17 10 16.5523 10 16V13ZM18.5 15.0873C18.5 15.6303 18.0744 15.973 17.3812 15.973C16.8074 15.973 16.4396 15.7439 16.3279 15.4396C16.3086 15.3896 16.2971 15.3357 16.2971 15.2837C16.2971 15.1296 16.403 15.0276 16.5532 15.0276C16.6726 15.0276 16.7515 15.0738 16.8208 15.197C16.9114 15.4088 17.129 15.5051 17.3947 15.5051C17.7066 15.5051 17.9185 15.3549 17.9185 15.1508C17.9185 14.9679 17.7875 14.8639 17.439 14.7926L17.1444 14.7349C16.5898 14.6251 16.3183 14.3594 16.3183 13.9454C16.3183 13.437 16.7612 13.1 17.3793 13.1C17.8876 13.1 18.2708 13.3137 18.3941 13.6758C18.4076 13.7143 18.4153 13.7547 18.4153 13.8048C18.4153 13.9434 18.3151 14.0378 18.1669 14.0378C18.0359 14.0378 17.955 13.9858 17.8896 13.8664C17.7971 13.6565 17.6181 13.5699 17.3793 13.5699C17.0924 13.5699 16.9017 13.7046 16.9017 13.9088C16.9017 14.0801 17.0346 14.1861 17.3639 14.2515L17.6566 14.3112C18.2458 14.4287 18.5 14.6655 18.5 15.0873ZM11.7754 15.9634C11.8851 15.9634 11.9467 15.9268 12.0199 15.8209L12.6303 14.9544H12.6458L13.2658 15.819C13.3409 15.9211 13.4122 15.9634 13.5181 15.9634C13.6798 15.9634 13.7973 15.8537 13.7973 15.7015C13.7973 15.6245 13.7742 15.559 13.7203 15.4897L13.0193 14.5442V14.5307L13.7414 13.566C13.7973 13.4948 13.8185 13.4331 13.8185 13.358C13.8185 13.2194 13.6875 13.1096 13.5354 13.1096C13.4237 13.1096 13.3659 13.152 13.2985 13.2521L12.6843 14.1495H12.6689L12.0738 13.2714C11.9987 13.1578 11.9217 13.1096 11.812 13.1096C11.6425 13.1096 11.5173 13.2252 11.5173 13.3831C11.5173 13.4582 11.5385 13.5217 11.6021 13.6064L12.2722 14.5192V14.5346L11.579 15.5013C11.5231 15.5783 11.5 15.6399 11.5 15.7112C11.5 15.8517 11.6213 15.9634 11.7754 15.9634ZM14.5234 15.9268H15.8001C15.9599 15.9268 16.0639 15.8363 16.0639 15.6861C16.0639 15.5359 15.958 15.4454 15.8001 15.4454H14.8142V13.4139C14.8142 13.2213 14.7063 13.1096 14.5234 13.1096C14.3405 13.1096 14.2326 13.2213 14.2326 13.4139V15.6226C14.2326 15.8151 14.3405 15.9268 14.5234 15.9268Z" fill="#8D95A9"/>
</svg>
