<svg width="24" height="24" viewBox="0 0 24 24" fill="none" xmlns="http://www.w3.org/2000/svg">
<path d="M12.5858 4.58579C12.2107 4.21071 11.702 4 11.1716 4H5C4.44772 4 4 4.44772 4 5V19C4 19.5523 4.44772 20 5 20H15C15.5523 20 16 19.5523 16 19V18H11C9.89543 18 9 17.1046 9 16V13C9 11.8954 9.89543 11 11 11H16V8.82843C16 8.29799 15.7893 7.78929 15.4142 7.41421L12.5858 4.58579Z" fill="#8D95A9"/>
<path fill-rule="evenodd" clip-rule="evenodd" d="M10 13C10 12.4477 10.4477 12 11 12H19C19.5523 12 20 12.4477 20 13V16C20 16.5523 19.5523 17 19 17H11C10.4477 17 10 16.5523 10 16V13ZM11.2768 15.9285C11.3871 15.9285 11.449 15.8917 11.5226 15.7853L12.1362 14.9143H12.1517L12.7749 15.7833C12.8504 15.8859 12.922 15.9285 13.0285 15.9285C13.1911 15.9285 13.3091 15.8182 13.3091 15.6653C13.3091 15.5878 13.2859 15.522 13.2317 15.4524L12.5272 14.502V14.4884L13.253 13.5187C13.3091 13.4471 13.3304 13.3852 13.3304 13.3097C13.3304 13.1703 13.1988 13.06 13.0459 13.06C12.9336 13.06 12.8756 13.1026 12.8078 13.2032L12.1904 14.1052H12.1749L11.5768 13.2226C11.5013 13.1084 11.4239 13.06 11.3136 13.06C11.1432 13.06 11.0174 13.1761 11.0174 13.3349C11.0174 13.4103 11.0387 13.4742 11.1026 13.5594L11.7762 14.4768V14.4923L11.0794 15.464C11.0232 15.5414 11 15.6033 11 15.6749C11 15.8162 11.1219 15.9285 11.2768 15.9285ZM14.008 15.9285C14.1725 15.9285 14.2674 15.8279 14.2674 15.6556V14.0065H14.2829L14.9739 15.6982C15.0223 15.8182 15.1036 15.8743 15.2274 15.8743C15.3494 15.8743 15.4268 15.8201 15.4771 15.6962L16.1681 14.0065H16.1836V15.6556C16.1836 15.8279 16.2784 15.9285 16.443 15.9285C16.6075 15.9285 16.7043 15.8279 16.7043 15.6556V13.4374C16.7043 13.1994 16.5649 13.06 16.3288 13.06C16.1236 13.06 16.0094 13.1471 15.9242 13.3619L15.2332 15.0788H15.2178L14.5248 13.3619C14.4397 13.1452 14.3274 13.06 14.1242 13.06C13.8861 13.06 13.7467 13.2013 13.7467 13.4374V15.6556C13.7467 15.8279 13.8435 15.9285 14.008 15.9285ZM18.7348 15.8917H17.4516C17.2677 15.8917 17.1593 15.7795 17.1593 15.5859V13.3658C17.1593 13.1723 17.2677 13.06 17.4516 13.06C17.6354 13.06 17.7438 13.1723 17.7438 13.3658V15.4078H18.7348C18.8935 15.4078 19 15.4988 19 15.6498C19 15.8008 18.8955 15.8917 18.7348 15.8917Z" fill="#8D95A9"/>
</svg>
